<svg width="64" height="64" viewBox="0 0 64 64" fill="none" xmlns="http://www.w3.org/2000/svg">
<path opacity="0.2" d="M6 48V50C6 53.324 8.676 56 12 56H52L58 62V60L52 54H12C8.676 54 6 51.324 6 48Z" fill="black"/>
<path d="M52 3H12C8.68629 3 6 5.68629 6 9V49C6 52.3137 8.68629 55 12 55H52C55.3137 55 58 52.3137 58 49V9C58 5.68629 55.3137 3 52 3Z" fill="#4D312B"/>
<path opacity="0.2" fill-rule="evenodd" clip-rule="evenodd" d="M44 48L58 62V60L46 48H44Z" fill="black"/>
<path fill-rule="evenodd" clip-rule="evenodd" d="M58 61L44 47H58V61Z" fill="#4D312B"/>
<path opacity="0.2" d="M29.3516 18C29.3516 18 25.3907 17.9139 21.1953 20.9961C16.9999 24.0783 15 28.4578 15 37.6484C15 37.6484 18.4479 41.7984 24.8867 42C24.8867 42 25.9658 40.7315 26.8398 39.6367C23.1398 38.5419 21.7383 36.2656 21.7383 36.2656C25.1474 38.1714 27.4649 38.9668 31 39C34.5351 38.9668 38.8526 38.1714 42.2617 36.2656C42.2617 36.2656 40.8602 38.5419 37.1602 39.6367C38.0342 40.7315 39.1133 42 39.1133 42C45.5521 41.7984 49 37.6484 49 37.6484C49 28.4578 47.0001 24.0783 42.8047 20.9961C38.6093 17.9139 34.6484 18 34.6484 18L34.3555 18.3457C39.5997 19.8151 41.9883 22.0879 41.9883 22.0879C39 20 34 20 32 20C30 20 25 20 22.0117 22.0879C22.0117 22.0879 24.4003 19.8151 29.6445 18.3457L29.3516 18ZM27 28C28.6763 28 30.0292 29.5591 30 31.5C30 33.4409 28.6763 35 27 35C25.3531 35 24 33.4409 24 31.5C24 29.5591 25.3237 28 27 28ZM37 28C38.6763 28 40 29.5591 40 31.5C40 33.4409 38.6469 35 37 35C35.3237 35 34 33.4409 34 31.5C33.9708 29.5591 35.3237 28 37 28Z" fill="black"/>
<path d="M29.3516 17C29.3516 17 25.3907 16.9139 21.1953 19.9961C16.9999 23.0783 15 27.4578 15 36.6484C15 36.6484 18.4479 40.7984 24.8867 41C24.8867 41 25.9658 39.7315 26.8398 38.6367C23.1398 37.5419 21.7383 35.2656 21.7383 35.2656C25.1474 37.1714 27.4649 37.9668 31 38C34.5351 37.9668 38.8526 37.1714 42.2617 35.2656C42.2617 35.2656 40.8602 37.5419 37.1602 38.6367C38.0342 39.7315 39.1133 41 39.1133 41C45.5521 40.7984 49 36.6484 49 36.6484C49 27.4578 47.0001 23.0783 42.8047 19.9961C38.6093 16.9139 34.6484 17 34.6484 17L34.3555 17.3457C39.5997 18.8151 41.9883 21.0879 41.9883 21.0879C39 19 34 19 32 19C30 19 25 19 22.0117 21.0879C22.0117 21.0879 24.4003 18.8151 29.6445 17.3457L29.3516 17ZM27 27C28.6763 27 30.0292 28.5591 30 30.5C30 32.4409 28.6763 34 27 34C25.3531 34 24 32.4409 24 30.5C24 28.5591 25.3237 27 27 27ZM37 27C38.6763 27 40 28.5591 40 30.5C40 32.4409 38.6469 34 37 34C35.3237 34 34 32.4409 34 30.5C33.9708 28.5591 35.3237 27 37 27Z" fill="white"/>
<path opacity="0.2" d="M12 2C8.676 2 6 4.676 6 8V9C6 5.676 8.676 3 12 3H52C55.324 3 58 5.676 58 9V8C58 4.676 55.324 2 52 2H12Z" fill="#51332D"/>
</svg>